<svg xmlns="http://www.w3.org/2000/svg" viewBox="0 0 114.31 114.31"><defs><style>.cls-1{fill:#a2d618;}</style></defs><title>Asset 3</title><g id="Layer_2" data-name="Layer 2"><g id="Layer_1-2" data-name="Layer 1"><path class="cls-1" d="M57.22,68.18a11,11,0,1,0-11-11A11,11,0,0,0,57.22,68.18Z"/><path class="cls-1" d="M69.87,35.09h7.73a1.59,1.59,0,0,1,1.59,1.59v7.71A1.59,1.59,0,0,1,77.61,46H69.88a1.6,1.6,0,0,1-1.6-1.6V36.68A1.59,1.59,0,0,1,69.87,35.09Z"/><path class="cls-1" d="M57.15,0a57.16,57.16,0,1,0,57.16,57.15A57.15,57.15,0,0,0,57.15,0ZM85.73,79a6.79,6.79,0,0,1-6.79,6.78H35.37A6.79,6.79,0,0,1,28.58,79V35.36a6.78,6.78,0,0,1,6.79-6.78H78.94a6.78,6.78,0,0,1,6.79,6.78Z"/><path class="cls-1" d="M74.61,57.22a17.39,17.39,0,1,1-34.16-4.59H35.1V77.49a1.6,1.6,0,0,0,1.6,1.59h41a1.6,1.6,0,0,0,1.6-1.59V52.63H74A17.41,17.41,0,0,1,74.61,57.22Z"/></g></g></svg>