<svg xmlns="http://www.w3.org/2000/svg" viewBox="0 0 1140.94 290.21"><defs><style>.cls-1{fill:#2e2f2f;}.cls-2{fill:#a2d618;}</style></defs><title>Asset 1</title><g id="Layer_2" data-name="Layer 2"><g id="Layer_1-2" data-name="Layer 1"><path class="cls-1" d="M50,84.3,26.19,45.69h-.35L19.12,84.3H.22L14.71,2.2h18.9L27.47,36.64h.34L60.4,2.2H85L44.74,41.28,74,84.3Z"/><path class="cls-1" d="M81.85,84.3,96.34,2.2h52.53L146,18.67H111.88L109.1,34.56h32.47l-2.78,15.53H106.32l-3,17.63h37.34l-2.9,16.58Z"/><path class="cls-1" d="M152.82,84.3,167.31,2.2h19.37l-14.5,82.1Z"/><path class="cls-1" d="M244.89,22.15a15.11,15.11,0,0,0-5.8-4.76,18.55,18.55,0,0,0-12-1.1,12.08,12.08,0,0,0-4,1.74,10.87,10.87,0,0,0-3,3.07,8.11,8.11,0,0,0-1.22,4.53,6.51,6.51,0,0,0,2.73,5.51,29.36,29.36,0,0,0,7.59,3.76A64.17,64.17,0,0,1,238.74,39a30.5,30.5,0,0,1,7.07,5.16,20,20,0,0,1,4.41,6.55A21.68,21.68,0,0,1,251.73,59a24.48,24.48,0,0,1-3.08,12.64,26.18,26.18,0,0,1-7.94,8.53A34.06,34.06,0,0,1,229.81,85a49.34,49.34,0,0,1-11.94,1.51,48.74,48.74,0,0,1-8.82-.82,47.44,47.44,0,0,1-8.46-2.37,35.51,35.51,0,0,1-7.54-4,27.12,27.12,0,0,1-5.91-5.57l14.26-11.6a17.39,17.39,0,0,0,7.19,6,21.71,21.71,0,0,0,9.62,2.32,22.78,22.78,0,0,0,4.93-.52,12.64,12.64,0,0,0,4.24-1.74,9.11,9.11,0,0,0,3-3.13,9,9,0,0,0,1.1-4.58A7.92,7.92,0,0,0,228,53.75a36.18,36.18,0,0,0-9.28-4.47,63.44,63.44,0,0,1-7.6-3.13,23.58,23.58,0,0,1-6.14-4.29,19.47,19.47,0,0,1-4.18-6.09,21,21,0,0,1-1.56-8.52,24.28,24.28,0,0,1,2.61-11.31,25.86,25.86,0,0,1,7.13-8.58,33.48,33.48,0,0,1,10.55-5.45A42.49,42.49,0,0,1,232.36,0,40.62,40.62,0,0,1,246.8,2.73,31.29,31.29,0,0,1,253.12,6,21.34,21.34,0,0,1,258,10.55Z"/><path class="cls-1" d="M314.23,84.3l6-34.55H288.37L282.22,84.3H263l14.5-82.1h19.25l-5.57,31.2h32l5.45-31.2H348L333.48,84.3Z"/><path class="cls-1" d="M408.27,84.3,405.49,68H373.83L364,84.3h-22l52.3-82.1H413l15.54,82.1Zm-9-61-17.17,29.1h21.46Z"/><path class="cls-1" d="M504.52,84.3H484.23L471.7,2.2h20.53l6.37,58.68h.47l32-58.68h22.38Z"/><path class="cls-1" d="M547.65,84.3l14.5-82.1h19.37L567,84.3Z"/><path class="cls-1" d="M587.08,84.3,601.57,2.2h19.37l-11.6,65.29h32.24l-3,16.81Z"/><path class="cls-1" d="M650.86,84.3,665.35,2.2h19.37l-11.6,65.29h32.24l-3,16.81Z"/><path class="cls-1" d="M769.25,84.3,766.47,68H734.81L725,84.3h-22l52.3-82.1H774l15.53,82.1Zm-9-61L743,52.41H764.5Z"/><path class="cls-1" d="M867.7,84.3H845.9l-13.8-33h-7.89L818.65,84.3H799.86l14.5-82.1h28.06q13.58,0,21.16,5.74T871.18,24q0,10-5.45,16.3A27.75,27.75,0,0,1,851,48.94Zm-32.35-47c5.17,0,9.2-.85,12.06-2.54s4.29-4.38,4.29-8.07q0-5.07-3.6-6.91A21.16,21.16,0,0,0,838.48,18h-8.24l-3.47,19.37Z"/><path class="cls-1" d="M931.48,22.15a15.11,15.11,0,0,0-5.8-4.76,18.55,18.55,0,0,0-11.95-1.1,12.17,12.17,0,0,0-4,1.74,10.87,10.87,0,0,0-3,3.07,8.11,8.11,0,0,0-1.22,4.53,6.51,6.51,0,0,0,2.73,5.51,29.36,29.36,0,0,0,7.59,3.76A64.17,64.17,0,0,1,925.33,39a30.5,30.5,0,0,1,7.07,5.16,19.82,19.82,0,0,1,4.41,6.55A21.68,21.68,0,0,1,938.32,59a24.58,24.58,0,0,1-3.07,12.64,26.32,26.32,0,0,1-8,8.53A34,34,0,0,1,916.4,85a49.34,49.34,0,0,1-11.94,1.51,48.55,48.55,0,0,1-8.81-.82,47.55,47.55,0,0,1-8.47-2.37,35.51,35.51,0,0,1-7.54-4,27.12,27.12,0,0,1-5.91-5.57L888,62.15a17.39,17.39,0,0,0,7.19,6,21.71,21.71,0,0,0,9.63,2.32,22.69,22.69,0,0,0,4.92-.52A12.64,12.64,0,0,0,914,68.24a9.11,9.11,0,0,0,2.95-3.13,9,9,0,0,0,1.1-4.58,7.89,7.89,0,0,0-3.47-6.78,36.18,36.18,0,0,0-9.28-4.47,63.44,63.44,0,0,1-7.6-3.13,23.58,23.58,0,0,1-6.14-4.29,19.47,19.47,0,0,1-4.18-6.09,21,21,0,0,1-1.56-8.52,24.28,24.28,0,0,1,2.61-11.31,25.86,25.86,0,0,1,7.13-8.58,33.48,33.48,0,0,1,10.55-5.45A42.49,42.49,0,0,1,919,0a40.62,40.62,0,0,1,14.44,2.73A31.29,31.29,0,0,1,939.71,6a21.34,21.34,0,0,1,4.87,4.52Z"/><path class="cls-1" d="M1000.82.12a50.69,50.69,0,0,1,16.64,2.55,34.7,34.7,0,0,1,12.47,7.3,31.73,31.73,0,0,1,7.82,11.48,39.46,39.46,0,0,1,2.73,15A53.43,53.43,0,0,1,1036.94,56,48.78,48.78,0,0,1,1027,71.84a46.16,46.16,0,0,1-15.25,10.67,48.38,48.38,0,0,1-19.54,3.88,51.64,51.64,0,0,1-16.82-2.55,35.2,35.2,0,0,1-12.58-7.31A31.3,31.3,0,0,1,955,65.05a39.42,39.42,0,0,1-2.73-15,52.59,52.59,0,0,1,3.6-19.53,48.3,48.3,0,0,1,10.09-15.89A47.25,47.25,0,0,1,981.28,4,48.18,48.18,0,0,1,1000.82.12ZM993.28,69a24.48,24.48,0,0,0,11.42-2.61,26.15,26.15,0,0,0,8.53-7,31.73,31.73,0,0,0,5.33-10,36.54,36.54,0,0,0,1.86-11.54,23,23,0,0,0-1.4-8.06,19,19,0,0,0-4-6.55,18.37,18.37,0,0,0-6.55-4.41,23.3,23.3,0,0,0-8.93-1.62A23.77,23.77,0,0,0,988.24,20a27.31,27.31,0,0,0-8.58,7,31.88,31.88,0,0,0-5.45,9.92,34.93,34.93,0,0,0-1.92,11.48,23,23,0,0,0,1.4,8,18.57,18.57,0,0,0,4,6.56,19.17,19.17,0,0,0,6.56,4.4A23,23,0,0,0,993.28,69Z"/><path class="cls-1" d="M1100.08,84.3l-22.61-54.5h-.35l-9.28,54.5h-19l14.49-82.1H1085l22.49,54.16h.23L1117,2.2h19l-14.5,82.1Z"/><path class="cls-2" d="M84.76,147.69l-4,21.65H139l-8.82,50.27h-58L60.7,284.86H0L33.42,95.54H155.35l-9.09,52.15Z"/><path class="cls-2" d="M158.83,284.86,192.25,95.54h62.3L221.13,284.86Z"/><path class="cls-2" d="M379.42,147.69,355.36,284.86h-62l24.07-137.17H269.52l9.36-52.15H435l-9.36,52.15Z"/><path class="cls-2" d="M539.59,284.86,502.15,191h-1.07l-14.7,93.86H426.21L459.64,95.54h60.69l38.24,98.67h1.07l15.51-98.67h60.16L601.89,284.86Z"/><path class="cls-2" d="M644.4,284.86,677.82,95.54H801.63l-9.09,51.61H727l-3.2,18.18h62.57l-8.56,48.13H715.26l-3.48,19.79h73.27L776,284.86Z"/><path class="cls-2" d="M934,152a33.86,33.86,0,0,0-11.76-8.69,39.86,39.86,0,0,0-16.85-3.34,28.22,28.22,0,0,0-13.5,3.21,10.53,10.53,0,0,0-6,9.89q0,5.35,5.06,8.29a80.61,80.61,0,0,0,14.92,6.15,140.76,140.76,0,0,1,21.85,9.09,67.31,67.31,0,0,1,16.25,11.77,47.79,47.79,0,0,1,10.26,15.24,49.44,49.44,0,0,1,3.59,19.25q0,18.19-8,31a66,66,0,0,1-20.37,20.86,90.18,90.18,0,0,1-27.31,11.76A119.12,119.12,0,0,1,873,290.21a136.17,136.17,0,0,1-22.46-1.88A139.14,139.14,0,0,1,829,283a115.15,115.15,0,0,1-19.38-8.56,76.73,76.73,0,0,1-15.78-11.5l42.25-39a35.45,35.45,0,0,0,7.75,6.69,55.67,55.67,0,0,0,9.5,4.94,67.84,67.84,0,0,0,10,3.21,41,41,0,0,0,9.36,1.21q9.36,0,15-3.08t5.61-9q0-4.82-4.68-8.55t-17.51-7.76A147.06,147.06,0,0,1,852,204.11a62.52,62.52,0,0,1-15.51-10.3,43,43,0,0,1-10.29-14.44q-3.75-8.42-3.75-20.45a62.37,62.37,0,0,1,6-27.28,64.12,64.12,0,0,1,17.11-21.79,82.33,82.33,0,0,1,26.47-14.44,104.7,104.7,0,0,1,33.83-5.21A116.47,116.47,0,0,1,926,91.93a120.88,120.88,0,0,1,18.72,4.82A97.59,97.59,0,0,1,961,104.1a54.32,54.32,0,0,1,12.57,9.63Z"/><path class="cls-2" d="M1101.37,152a33.86,33.86,0,0,0-11.76-8.69,39.89,39.89,0,0,0-16.85-3.34,28.22,28.22,0,0,0-13.5,3.21,10.53,10.53,0,0,0-6,9.89q0,5.35,5.06,8.29a80.61,80.61,0,0,0,14.92,6.15,140.21,140.21,0,0,1,21.84,9.09,67.31,67.31,0,0,1,16.25,11.77,47.62,47.62,0,0,1,10.26,15.24,49.25,49.25,0,0,1,3.6,19.25q0,18.19-8,31a66.22,66.22,0,0,1-20.37,20.86,90.29,90.29,0,0,1-27.31,11.76,119.18,119.18,0,0,1-29.09,3.75,136.29,136.29,0,0,1-22.47-1.88A139.3,139.3,0,0,1,996.42,283,115.25,115.25,0,0,1,977,274.43a76.93,76.93,0,0,1-15.77-11.5l42.25-39a35.45,35.45,0,0,0,7.75,6.69,56,56,0,0,0,9.49,4.94,68.34,68.34,0,0,0,10,3.21,40.89,40.89,0,0,0,9.36,1.21q9.36,0,15-3.08t5.62-9q0-4.82-4.68-8.55t-17.52-7.76a147.48,147.48,0,0,1-19.11-7.48,62.34,62.34,0,0,1-15.51-10.3,43.13,43.13,0,0,1-10.3-14.44q-3.75-8.42-3.74-20.45a62.23,62.23,0,0,1,6-27.28A64.12,64.12,0,0,1,1013,109.85a82.23,82.23,0,0,1,26.47-14.44,104.65,104.65,0,0,1,33.83-5.21,116.56,116.56,0,0,1,20,1.73,121.47,121.47,0,0,1,18.72,4.82,97.59,97.59,0,0,1,16.31,7.35,54,54,0,0,1,12.56,9.63Z"/></g></g></svg>