<svg id="Layer_1" data-name="Layer 1" xmlns="http://www.w3.org/2000/svg" xmlns:xlink="http://www.w3.org/1999/xlink" viewBox="0 0 1140.89 290.23"><defs><style>.cls-1{fill:url(#linear-gradient);}.cls-2{fill:url(#linear-gradient-2);}.cls-3{fill:url(#linear-gradient-3);}.cls-4{fill:url(#linear-gradient-4);}.cls-5{fill:url(#linear-gradient-5);}.cls-6{fill:url(#linear-gradient-6);}.cls-7{fill:url(#linear-gradient-7);}.cls-8{fill:url(#linear-gradient-8);}.cls-9{fill:url(#linear-gradient-9);}.cls-10{fill:url(#linear-gradient-10);}.cls-11{fill:url(#linear-gradient-11);}.cls-12{fill:url(#linear-gradient-12);}.cls-13{fill:url(#linear-gradient-13);}.cls-14{fill:url(#linear-gradient-14);}.cls-15{fill:url(#linear-gradient-15);}.cls-16{fill:url(#linear-gradient-16);}.cls-17{fill:url(#linear-gradient-17);}.cls-18{fill:url(#linear-gradient-18);}.cls-19{fill:url(#linear-gradient-19);}.cls-20{fill:url(#linear-gradient-20);}.cls-21{fill:url(#linear-gradient-21);}.cls-22{fill:url(#linear-gradient-22);}</style><linearGradient id="linear-gradient" x1="59.23" y1="91.19" x2="185.37" y2="454.96" gradientUnits="userSpaceOnUse"><stop offset="0" stop-color="#5c6fce"/><stop offset="1" stop-color="#392b4f"/></linearGradient><linearGradient id="linear-gradient-2" x1="124.17" y1="68.67" x2="250.31" y2="432.44" xlink:href="#linear-gradient"/><linearGradient id="linear-gradient-3" x1="172.73" y1="51.83" x2="298.86" y2="415.61" xlink:href="#linear-gradient"/><linearGradient id="linear-gradient-4" x1="220.22" y1="35.37" x2="346.36" y2="399.14" xlink:href="#linear-gradient"/><linearGradient id="linear-gradient-5" x1="293.91" y1="9.82" x2="420.04" y2="373.59" xlink:href="#linear-gradient"/><linearGradient id="linear-gradient-6" x1="358.18" y1="-12.47" x2="484.32" y2="351.3" xlink:href="#linear-gradient"/><linearGradient id="linear-gradient-7" x1="484.35" y1="-56.22" x2="610.49" y2="307.55" xlink:href="#linear-gradient"/><linearGradient id="linear-gradient-8" x1="525.18" y1="-70.38" x2="651.32" y2="293.4" xlink:href="#linear-gradient"/><linearGradient id="linear-gradient-9" x1="560.38" y1="-82.58" x2="686.52" y2="281.19" xlink:href="#linear-gradient"/><linearGradient id="linear-gradient-10" x1="617.31" y1="-102.33" x2="743.45" y2="261.45" xlink:href="#linear-gradient"/><linearGradient id="linear-gradient-11" x1="680.43" y1="-124.21" x2="806.57" y2="239.56" xlink:href="#linear-gradient"/><linearGradient id="linear-gradient-12" x1="764.28" y1="-153.29" x2="890.42" y2="210.49" xlink:href="#linear-gradient"/><linearGradient id="linear-gradient-13" x1="833.12" y1="-177.16" x2="959.25" y2="186.62" xlink:href="#linear-gradient"/><linearGradient id="linear-gradient-14" x1="910.63" y1="-204.03" x2="1036.77" y2="159.74" xlink:href="#linear-gradient"/><linearGradient id="linear-gradient-15" x1="996.37" y1="-233.76" x2="1122.5" y2="130.01" xlink:href="#linear-gradient"/><linearGradient id="linear-gradient-16" x1="45.05" y1="96.11" x2="171.19" y2="459.88" xlink:href="#linear-gradient"/><linearGradient id="linear-gradient-17" x1="160.22" y1="56.17" x2="286.35" y2="419.95" xlink:href="#linear-gradient"/><linearGradient id="linear-gradient-18" x1="300.8" y1="7.42" x2="426.94" y2="371.2" xlink:href="#linear-gradient"/><linearGradient id="linear-gradient-19" x1="449.5" y1="-44.14" x2="575.64" y2="319.64" xlink:href="#linear-gradient"/><linearGradient id="linear-gradient-20" x1="621.12" y1="-103.65" x2="747.26" y2="260.13" xlink:href="#linear-gradient"/><linearGradient id="linear-gradient-21" x1="765.14" y1="-153.59" x2="891.28" y2="210.19" xlink:href="#linear-gradient"/><linearGradient id="linear-gradient-22" x1="914.54" y1="-205.39" x2="1040.68" y2="158.39" xlink:href="#linear-gradient"/></defs><polygon class="cls-1" points="25.84 45.69 26.19 45.69 50 84.3 74 84.3 44.74 41.28 85 2.2 60.4 2.2 27.81 36.64 27.47 36.64 33.61 2.2 14.71 2.2 0.22 84.3 19.12 84.3 25.84 45.69"/><polygon class="cls-2" points="137.76 84.3 140.66 67.72 103.32 67.72 106.32 50.09 138.79 50.09 141.57 34.56 109.1 34.56 111.88 18.67 146 18.67 148.87 2.2 96.34 2.2 81.85 84.3 137.76 84.3"/><polygon class="cls-3" points="186.68 2.2 167.31 2.2 152.82 84.3 172.18 84.3 186.68 2.2"/><path class="cls-4" d="M253.12,6a31.55,31.55,0,0,0-6.32-3.27A40.54,40.54,0,0,0,232.36,0a42.57,42.57,0,0,0-12.83,1.91A33.42,33.42,0,0,0,209,7.36a25.92,25.92,0,0,0-7.13,8.58,24.24,24.24,0,0,0-2.61,11.31,20.89,20.89,0,0,0,1.56,8.52A19.35,19.35,0,0,0,205,41.86a23.56,23.56,0,0,0,6.14,4.29,62.89,62.89,0,0,0,7.6,3.13A36.29,36.29,0,0,1,228,53.75a7.93,7.93,0,0,1,3.48,6.75,8.92,8.92,0,0,1-1.1,4.58,9.08,9.08,0,0,1-3,3.13A12.8,12.8,0,0,1,223.14,70a22.68,22.68,0,0,1-4.93.52,21.75,21.75,0,0,1-9.62-2.32,17.33,17.33,0,0,1-7.19-6l-14.26,11.6a27.18,27.18,0,0,0,5.91,5.57,35.6,35.6,0,0,0,7.54,4,47.64,47.64,0,0,0,8.46,2.37A47.91,47.91,0,0,0,229.81,85a34.08,34.08,0,0,0,10.9-4.83,26.23,26.23,0,0,0,7.94-8.53A24.49,24.49,0,0,0,251.73,59a21.75,21.75,0,0,0-1.51-8.29,20.07,20.07,0,0,0-4.41-6.55A30.63,30.63,0,0,0,238.74,39a64.93,64.93,0,0,0-9.55-4.1,29.38,29.38,0,0,1-7.59-3.76,6.51,6.51,0,0,1-2.73-5.51,8.13,8.13,0,0,1,1.22-4.53,11,11,0,0,1,3-3.07,12,12,0,0,1,4-1.74,18.56,18.56,0,0,1,12,1.1,15.07,15.07,0,0,1,5.8,4.76L258,10.55A21.32,21.32,0,0,0,253.12,6Z" transform="translate(0 0)"/><polygon class="cls-5" points="288.37 49.75 320.23 49.75 314.23 84.3 333.48 84.3 348 2.2 328.63 2.2 323.18 33.4 291.18 33.4 296.75 2.2 277.5 2.2 263 84.3 282.22 84.3 288.37 49.75"/><path class="cls-6" d="M364,84.3,373.83,68h31.66l2.78,16.3h20.27L413,2.2H394.3L342,84.3Zm35.27-61,4.29,29.1H382.1Z" transform="translate(0 0)"/><polygon class="cls-7" points="504.52 84.3 553.45 2.2 531.07 2.2 499.07 60.88 498.6 60.88 492.23 2.2 471.7 2.2 484.23 84.3 504.52 84.3"/><polygon class="cls-8" points="567 84.3 581.52 2.2 562.15 2.2 547.65 84.3 567 84.3"/><polygon class="cls-9" points="620.94 2.2 601.57 2.2 587.08 84.3 638.58 84.3 641.58 67.49 609.34 67.49 620.94 2.2"/><polygon class="cls-10" points="705.36 67.49 673.12 67.49 684.72 2.2 665.35 2.2 650.86 84.3 702.36 84.3 705.36 67.49"/><path class="cls-11" d="M725,84.3,734.81,68h31.66l2.78,16.3h20.28L774,2.2H755.3L703,84.3Zm35.25-61,4.25,29.11H743Z" transform="translate(0 0)"/><path class="cls-12" d="M824.21,51.3h7.89l13.8,33h21.8L851,48.94a27.72,27.72,0,0,0,14.73-8.64q5.44-6.3,5.45-16.3,0-10.32-7.6-16.06T842.42,2.2H814.36l-14.5,82.1h18.79Zm6-33.3h8.24a21.06,21.06,0,0,1,9.62,1.78q3.6,1.84,3.6,6.91,0,5.53-4.29,8.07c-2.86,1.69-6.89,2.54-12.06,2.54l-8.58.07Z" transform="translate(0 0)"/><path class="cls-13" d="M914,68.24A12.63,12.63,0,0,1,909.74,70a22.66,22.66,0,0,1-4.92.52,21.62,21.62,0,0,1-9.63-2.32,17.33,17.33,0,0,1-7.19-6l-14.27,11.6a27.18,27.18,0,0,0,5.91,5.57,35.84,35.84,0,0,0,7.54,4,47.75,47.75,0,0,0,8.47,2.37,48.22,48.22,0,0,0,8.81.82A49,49,0,0,0,916.4,85a34.13,34.13,0,0,0,10.85-4.83,26.31,26.31,0,0,0,8-8.53A24.58,24.58,0,0,0,938.32,59a21.75,21.75,0,0,0-1.51-8.29,20,20,0,0,0-4.41-6.55A30.63,30.63,0,0,0,925.33,39a64.35,64.35,0,0,0-9.5-4.1,29.38,29.38,0,0,1-7.59-3.76,6.51,6.51,0,0,1-2.73-5.51,8.13,8.13,0,0,1,1.22-4.53,11,11,0,0,1,3-3.07,12,12,0,0,1,4-1.74,18.53,18.53,0,0,1,11.95,1.1,15.07,15.07,0,0,1,5.8,4.76l13.1-11.63A21.35,21.35,0,0,0,939.71,6a31.41,31.41,0,0,0-6.27-3.27A40.54,40.54,0,0,0,919,0a42.34,42.34,0,0,0-12.89,1.91,33.42,33.42,0,0,0-10.55,5.45,25.92,25.92,0,0,0-7.13,8.58,24.24,24.24,0,0,0-2.61,11.31,20.89,20.89,0,0,0,1.56,8.52,19.35,19.35,0,0,0,4.18,6.09,23.56,23.56,0,0,0,6.14,4.29,62.89,62.89,0,0,0,7.6,3.13,36.29,36.29,0,0,1,9.28,4.47,7.9,7.9,0,0,1,3.47,6.78,8.92,8.92,0,0,1-1.1,4.58A9.11,9.11,0,0,1,914,68.24Z" transform="translate(0 0)"/><path class="cls-14" d="M962.81,76.53a35.07,35.07,0,0,0,12.58,7.31,51.64,51.64,0,0,0,16.82,2.55,48.39,48.39,0,0,0,19.54-3.88A46,46,0,0,0,1027,71.84,48.85,48.85,0,0,0,1036.94,56a53.53,53.53,0,0,0,3.54-19.55,39.48,39.48,0,0,0-2.73-15A31.76,31.76,0,0,0,1029.93,10a34.74,34.74,0,0,0-12.47-7.3A50.84,50.84,0,0,0,1000.82.12,48.22,48.22,0,0,0,981.28,4,47.2,47.2,0,0,0,966,14.63a48.3,48.3,0,0,0-10.09,15.89,52.59,52.59,0,0,0-3.6,19.53,39.45,39.45,0,0,0,2.73,15A31.28,31.28,0,0,0,962.81,76.53Zm11.4-39.61A32,32,0,0,1,979.66,27a27.29,27.29,0,0,1,8.58-7,23.81,23.81,0,0,1,11.3-2.79,23.32,23.32,0,0,1,8.93,1.62,18.36,18.36,0,0,1,6.55,4.41,18.9,18.9,0,0,1,4,6.55,23.06,23.06,0,0,1,1.4,8.06,36.5,36.5,0,0,1-1.86,11.54,31.73,31.73,0,0,1-5.33,10,26.15,26.15,0,0,1-8.53,7A24.47,24.47,0,0,1,993.28,69a22.88,22.88,0,0,1-9-1.64,19.19,19.19,0,0,1-6.56-4.4,18.47,18.47,0,0,1-4-6.56,23,23,0,0,1-1.4-8A34.75,34.75,0,0,1,974.21,36.92Z" transform="translate(0 0)"/><polygon class="cls-15" points="1077.12 29.8 1077.47 29.8 1100.08 84.3 1121.5 84.3 1136 2.2 1117 2.2 1107.72 56.36 1107.49 56.36 1085 2.2 1063.33 2.2 1048.84 84.3 1067.84 84.3 1077.12 29.8"/><polygon class="cls-16" points="0 284.86 60.7 284.86 72.18 219.61 130.18 219.61 139 169.34 80.76 169.34 84.76 147.69 146.26 147.69 155.35 95.54 33.42 95.54 0 284.86"/><polygon class="cls-17" points="158.83 284.86 221.13 284.86 254.55 95.54 192.25 95.54 158.83 284.86"/><polygon class="cls-18" points="278.88 95.54 269.52 147.69 317.43 147.69 293.36 284.86 355.36 284.86 379.42 147.69 425.64 147.69 435 95.54 278.88 95.54"/><polygon class="cls-19" points="559.64 194.21 558.57 194.21 520.33 95.54 459.64 95.54 426.21 284.86 486.38 284.86 501.08 191 502.15 191 539.59 284.86 601.89 284.86 635.31 95.54 575.15 95.54 559.64 194.21"/><polygon class="cls-20" points="792.54 147.15 801.63 95.54 677.82 95.54 644.4 284.86 776 284.86 785.05 233.25 711.78 233.25 715.26 213.46 777.81 213.46 786.37 165.33 723.8 165.33 727 147.15 792.54 147.15"/><path class="cls-21" d="M944,188.37a67.53,67.53,0,0,0-16.25-11.77,140.45,140.45,0,0,0-21.85-9.09A81.21,81.21,0,0,1,891,161.36q-5.06-2.94-5.06-8.29a10.53,10.53,0,0,1,6-9.89,28.17,28.17,0,0,1,13.5-3.21,40,40,0,0,1,16.85,3.34A33.86,33.86,0,0,1,934,152l39.57-38.27A54.28,54.28,0,0,0,961,104.1a98,98,0,0,0-16.28-7.35A120.74,120.74,0,0,0,926,91.93a116.21,116.21,0,0,0-20.14-1.73A104.71,104.71,0,0,0,872,95.41a82.29,82.29,0,0,0-26.47,14.44,64.23,64.23,0,0,0-17.11,21.79,62.29,62.29,0,0,0-6,27.28q0,12,3.75,20.45a43,43,0,0,0,10.29,14.44A62.44,62.44,0,0,0,852,204.11a147.15,147.15,0,0,0,19.12,7.49q12.82,4,17.51,7.76t4.68,8.55q0,5.93-5.61,9t-15,3.08a41,41,0,0,1-9.36-1.21,67.69,67.69,0,0,1-10-3.21,55.61,55.61,0,0,1-9.5-4.94,35.62,35.62,0,0,1-7.75-6.69l-42.25,39a76.86,76.86,0,0,0,15.78,11.5A115.1,115.1,0,0,0,829,283a138.89,138.89,0,0,0,21.54,5.33A135.18,135.18,0,0,0,873,290.21a119.33,119.33,0,0,0,29.14-3.73,90.25,90.25,0,0,0,27.31-11.76,66.07,66.07,0,0,0,20.37-20.86q8-12.81,8-31a49.38,49.38,0,0,0-3.59-19.25A47.78,47.78,0,0,0,944,188.37Z" transform="translate(0 0)"/><path class="cls-22" d="M1111.33,188.37a67.53,67.53,0,0,0-16.25-11.77,140.34,140.34,0,0,0-21.84-9.09,81.21,81.21,0,0,1-14.92-6.15q-5.05-2.94-5.06-8.29a10.53,10.53,0,0,1,6-9.89,28.17,28.17,0,0,1,13.5-3.21,40,40,0,0,1,16.85,3.34,33.86,33.86,0,0,1,11.76,8.69l39.52-38.27a54,54,0,0,0-12.56-9.63A98.3,98.3,0,0,0,1112,96.75a121.88,121.88,0,0,0-18.72-4.82,116.59,116.59,0,0,0-20-1.73,104.71,104.71,0,0,0-33.83,5.21A82.29,82.29,0,0,0,1013,109.85a64.05,64.05,0,0,0-17.16,21.79,62.29,62.29,0,0,0-6,27.28q0,12,3.74,20.45a43.21,43.21,0,0,0,10.3,14.44,62.44,62.44,0,0,0,15.51,10.3,148.41,148.41,0,0,0,19.11,7.48q12.84,4,17.52,7.76t4.68,8.55q0,5.92-5.62,9t-15,3.08a41,41,0,0,1-9.36-1.21,68.89,68.89,0,0,1-10-3.21,55.89,55.89,0,0,1-9.49-4.94,35.62,35.62,0,0,1-7.75-6.69l-42.25,39A77.07,77.07,0,0,0,977,274.43,115.09,115.09,0,0,0,996.42,283a139.69,139.69,0,0,0,21.53,5.35,135.39,135.39,0,0,0,22.47,1.88,119.5,119.5,0,0,0,29.09-3.75,90.25,90.25,0,0,0,27.31-11.76,66.18,66.18,0,0,0,20.37-20.86q8-12.81,8-31a49.21,49.21,0,0,0-3.6-19.25A47.62,47.62,0,0,0,1111.33,188.37Z" transform="translate(0 0)"/></svg>